<?xml version="1.0" encoding="UTF-8" standalone="no"?>
<!-- Created with Inkscape (http://www.inkscape.org/) -->

<svg
   version="1.1"
   id="svg2"
   width="1333.3333"
   height="1333.3333"
   viewBox="0 0 1333.3333 1333.3333"
   sodipodi:docname="PAA logo_cream.ai"
   xmlns:inkscape="http://www.inkscape.org/namespaces/inkscape"
   xmlns:sodipodi="http://sodipodi.sourceforge.net/DTD/sodipodi-0.dtd"
   xmlns="http://www.w3.org/2000/svg"
   xmlns:svg="http://www.w3.org/2000/svg">
  <defs
     id="defs6">
    <clipPath
       clipPathUnits="userSpaceOnUse"
       id="clipPath16">
      <path
         d="M 0,1000 H 1000 V 0 H 0 Z"
         id="path14" />
    </clipPath>
  </defs>
  <sodipodi:namedview
     id="namedview4"
     pagecolor="#ffffff"
     bordercolor="#000000"
     borderopacity="0.25"
     inkscape:showpageshadow="2"
     inkscape:pageopacity="0.0"
     inkscape:pagecheckerboard="0"
     inkscape:deskcolor="#d1d1d1" />
  <g
     id="g8"
     inkscape:groupmode="layer"
     inkscape:label="PAA logo_cream"
     transform="matrix(1.3333333,0,0,-1.3333333,0,1333.3333)">
    <g
       id="g10">
      <g
         id="g12"
         clip-path="url(#clipPath16)">
        <g
           id="g18"
           transform="translate(921.8397,189.5216)">
          <path
             d="m 0,0 -863.412,8.257 2.612,275.827 c 0.874,0.194 1.744,0.28 2.613,0.257 0.545,0.094 1.187,-0.25 1.724,-0.481 1.51,-0.366 2.915,-0.621 4.428,-0.879 1.188,-0.249 2.504,0.259 3.666,-0.967 0.425,-0.337 1.836,-0.375 2.39,0.045 1.328,0.941 2.841,0.684 4.363,0.751 1.625,-0.151 3.241,-0.629 4.792,0.523 0.551,0.312 2.067,0.162 2.486,-0.392 0.845,-0.891 1.394,-0.688 2.165,-0.275 1.988,1.25 4.049,1.194 6.09,0.38 0.754,-0.237 1.627,-0.044 2.17,-0.059 1.056,-1.113 2.003,-2.224 3.285,-3.019 0.534,-0.34 1.531,0.393 2.41,0.805 0.323,-0.118 0.643,-0.344 0.857,-0.458 l -2.122,-229.152 97.694,-0.989 1.795,196.696 40.488,-0.433 c 35.172,-0.291 60.846,9.662 76.48,29.873 1.519,-0.04 3.058,0.678 4.589,1.071 0.209,-0.331 0.519,-0.882 0.833,-1.325 0.112,0.106 0.115,0.214 0.226,0.32 0.974,-0.135 2.173,0.05 2.918,-0.513 2.338,-1.908 4.63,-1.427 7.26,-0.52 1.206,0.402 2.716,0.036 4.018,10e-4 1.41,-0.038 2.818,-0.184 4.117,-0.327 0.651,-0.018 1.188,-0.249 1.836,-0.375 0.108,-0.003 0.214,-0.115 0.214,-0.115 1.645,0.608 3.288,1.106 4.826,1.825 0.549,0.203 0.78,0.739 1.086,-0.029 0.106,-0.111 0.654,0.091 0.982,0.191 0.762,0.088 1.522,0.068 2.276,-0.169 1.093,0.296 2.187,0.592 3.284,0.998 0.102,-0.22 0.099,-0.329 0.205,-0.441 -0.657,-0.199 -1.205,-0.401 -1.973,-0.707 0.636,-0.56 2.178,0.268 2.038,-0.923 0.328,0.1 0.548,0.202 0.876,0.302 l -24.097,-226.718 96.611,-0.85 6.712,80.276 60.027,-0.63 6.206,-80.406 94.222,-0.896 -21.586,252.046 c 0.214,-0.114 0.428,-0.229 0.645,-0.234 0.757,-0.129 1.408,-0.147 2.384,-0.173 0,0 0.206,-0.44 0.517,-0.991 0.548,0.202 1.099,0.514 1.756,0.713 0.109,-0.002 0.106,-0.111 0.103,-0.22 -0.223,-0.211 -0.449,-0.53 -0.786,-0.956 3.651,-1.509 7.091,-2.796 11.137,-1.709 l -0.011,-0.435 c 0.334,0.317 0.777,0.631 1.111,0.948 0.106,-0.112 0.215,-0.115 0.215,-0.115 -0.118,-0.322 -0.235,-0.645 -0.689,-1.393 0.985,0.299 1.756,0.713 2.41,0.805 0.654,0.091 1.63,0.065 2.056,-0.273 1.387,-0.906 2.052,-0.381 2.735,0.796 0.337,0.425 0.675,0.85 1.021,1.601 0.307,-0.66 0.407,-0.988 0.399,-1.314 2.299,0.699 1.7,-1.348 2.217,-2.339 1.439,1.047 2.876,1.986 4.313,2.924 -0.381,-2.053 -0.164,-2.058 3.674,-0.641 -0.128,-0.757 -0.252,-1.296 -0.378,-1.944 0.332,0.208 0.769,0.305 1.317,0.507 -0.234,-0.645 -0.352,-0.968 -0.475,-1.507 0.968,-0.352 1.924,-1.137 3.01,-1.166 0.867,-0.024 1.29,-0.47 1.935,-0.704 1.293,-0.36 2.103,-2.554 4.094,-1.196 0.443,0.315 1.73,-0.263 2.601,-0.177 1.739,0.061 3.478,0.123 5.22,0.294 0.217,-0.006 0.651,-0.017 0.865,-0.132 0.393,-1.531 2.038,-0.923 2.997,-1.6 0.534,-0.34 1.739,0.062 2.505,0.258 0.765,0.197 1.43,0.722 1.773,1.365 l 1.519,-0.041 c -0.117,-0.323 -0.232,-0.537 -0.457,-0.857 0.771,0.414 1.633,0.174 2.498,0.042 l -25.819,-242.307 96.61,-0.959 6.493,80.282 60.136,-0.634 6.21,-80.297 94.33,-0.899 -23.009,267.828 c 0.536,-0.231 1.193,-0.032 1.859,0.494 1.439,1.047 2.876,1.986 4.424,3.03 0.725,-1.323 1.362,-1.882 2.587,-0.721 0.557,0.528 1.531,0.393 2.404,0.587 1.2,0.185 2.505,0.259 3.704,0.444 -0.115,-0.214 -0.346,-0.751 -0.577,-1.288 1.161,-1.225 3.008,-1.166 4.774,-0.128 3.204,2.086 6.298,4.066 9.496,5.935 0.551,0.311 1.522,0.068 2.179,0.268 1.205,0.401 2.31,1.132 3.516,1.534 1.316,0.507 2.841,0.684 4.043,0.978 0.437,0.096 0.763,0.087 1.097,0.404 1.12,1.273 1.422,0.396 1.51,-0.366 l 9.551,-0.147 c 0.083,-0.979 1.672,-2.434 2.986,-2.035 2.51,0.476 5.208,-0.139 7.431,1.755 0.442,0.315 1.621,-0.26 2.378,-0.389 0.542,-0.014 1.193,-0.032 1.524,0.176 0.772,0.414 1.437,0.939 2.211,1.461 l -0.014,-0.542 c 0.645,-0.235 1.281,-0.795 1.935,-0.703 0.109,-0.003 0.109,-0.003 0.217,-0.006 z"
             style="fill:#f8f8f4;fill-opacity:1;fill-rule:nonzero;stroke:none"
             id="path20" />
        </g>
        <g
           id="g22"
           transform="translate(491.0107,396.614)">
          <path
             d="m 0,0 -45.156,0.45 6.734,81.144 c 0.762,0.089 1.522,0.068 2.396,0.262 1.862,0.602 4.026,0.327 6.087,0.271 1.519,-0.04 3.027,-0.515 4.047,1.086 0.117,0.323 0.774,0.522 1.211,0.619 1.087,0.08 2.27,-0.386 2.85,1.01 0.003,0.108 0.439,0.205 0.548,0.202 1.807,-1.46 2.199,1.027 3.507,1.209 0.217,-0.006 0.346,0.751 0.463,1.074 1.065,-0.789 3.789,-0.428 4.243,0.32 1.417,0.18 2.607,0.039 3.381,0.561 0.883,0.519 1.762,0.93 2.748,1.229 z"
             style="fill:#f8f8f4;fill-opacity:1;fill-rule:nonzero;stroke:none"
             id="path24" />
        </g>
        <g
           id="g26"
           transform="translate(771.5046,393.8768)">
          <path
             d="m 0,0 -45.157,0.45 7.088,86.239 c 1.077,-0.355 2.07,0.269 3.044,0.135 0.325,-0.009 0.642,-0.343 0.968,-0.352 0.973,-0.134 2.258,-0.82 2.921,-0.404 1.216,0.836 3.26,0.13 3.964,2.066 0.114,0.214 0.765,0.196 0.985,0.299 0.66,0.308 1.319,0.616 1.768,1.147 0.446,0.422 0.794,1.282 1.751,0.496 0.105,-0.112 0.325,-0.009 0.545,0.094 1.316,0.508 2.521,0.909 3.835,1.309 0.111,0.106 0.326,-0.009 0.431,-0.12 1.484,-1.343 2.81,-0.51 4.032,0.543 0.666,0.525 1.129,1.598 2.299,0.699 0.217,-0.006 0.552,0.31 0.994,0.624 -0.123,-0.539 -0.243,-0.971 -0.361,-1.293 -0.003,-0.108 0.103,-0.22 0.209,-0.331 0.554,0.419 1.108,0.839 1.774,1.364 0.54,-0.124 1.293,-0.36 1.721,-0.589 -0.014,-0.543 0.08,-1.088 0.177,-1.525 -0.012,-0.434 -0.021,-0.76 0.079,-1.088 z"
             style="fill:#f8f8f4;fill-opacity:1;fill-rule:nonzero;stroke:none"
             id="path28" />
        </g>
        <g
           id="g30"
           transform="translate(941.5727,549.335)">
          <path
             d="m 0,0 c -0.109,0.002 -0.109,0.002 -0.217,0.003 -0.654,-0.208 -1.406,0.344 -2.054,0.571 l 0.007,0.542 C -3.031,0.584 -3.583,-0.06 -4.347,-0.375 -4.784,-0.586 -5.435,-0.577 -5.978,-0.57 c -0.76,0.01 -1.837,0.568 -2.276,0.248 -2.306,-1.923 -5.013,-1.451 -7.518,-2.069 -1.307,-0.308 -2.917,1.017 -2.904,1.994 l -9.555,-0.196 c -0.207,0.762 -0.52,1.635 -1.513,0.454 -0.33,-0.32 -0.657,-0.425 -1.093,-0.527 -1.307,-0.308 -2.831,-0.613 -4.14,-1.138 -1.2,-0.418 -2.187,-1.164 -3.387,-1.582 -0.655,-0.317 -1.629,-0.086 -2.176,-0.405 -3.174,-1.91 -6.243,-4.04 -9.311,-6.169 -1.753,-1.17 -3.599,-1.254 -4.777,-0.043 0.224,0.539 0.34,1.08 0.451,1.188 -1.196,-0.093 -2.391,-0.185 -3.589,-0.494 -0.871,-0.206 -1.847,-0.084 -2.398,-0.728 -1.209,-1.069 -1.852,-0.518 -2.594,0.796 -1.536,-1.174 -2.96,-2.131 -4.278,-3.199 -0.658,-0.534 -1.312,-0.742 -1.853,-0.626 l -27.174,228.758 -168.305,-3.898 -18.662,-254.729 c -0.868,0.012 -1.842,0.242 -2.499,-0.183 0.221,0.322 0.224,0.539 0.446,0.862 l -1.521,-0.088 c -0.335,-0.647 -0.992,-1.072 -1.755,-1.279 -0.762,-0.207 -1.963,-0.733 -2.501,-0.4 -0.968,0.664 -2.607,-0.073 -3.127,1.562 -0.107,0.11 -0.541,0.116 -0.758,0.119 -1.849,-0.301 -3.589,-0.494 -5.218,-0.58 -0.869,0.012 -2.165,0.463 -2.712,0.145 -1.866,-1.494 -2.704,0.688 -4.001,1.14 -0.65,0.118 -1.078,0.557 -1.947,0.569 -1.085,0.015 -2.053,0.679 -3.025,1.019 0.008,0.542 0.121,0.866 0.346,1.515 -0.545,-0.21 -0.981,-0.313 -1.31,-0.525 0.118,0.65 0.234,1.191 0.353,1.949 -3.821,-1.577 -4.038,-1.574 -3.793,0.485 -1.316,-0.959 -2.74,-1.916 -4.165,-2.983 -0.53,0.985 -0.067,3.041 -2.25,2.202 0.005,0.326 -0.208,0.654 -0.416,1.308 -0.445,-0.754 -0.668,-1.185 -0.999,-1.614 -0.667,-1.185 -1.328,-1.828 -2.725,-0.831 -0.43,0.331 -1.408,0.236 -2.061,0.136 -0.652,-0.1 -1.418,-0.523 -2.4,-0.944 0.445,0.862 0.558,1.187 0.671,1.51 0,0 -0.108,0.002 -0.215,0.112 -0.332,-0.43 -0.771,-0.75 -1.101,-1.07 l 0.006,0.434 c -4.032,-1.14 -7.488,0.101 -11.271,1.347 0.442,0.536 0.663,0.859 0.884,1.074 10e-4,0.108 0.003,0.216 -0.106,0.218 -0.656,-0.317 -1.203,-0.635 -1.748,-0.845 -0.319,0.548 -0.528,1.093 -0.528,1.093 -0.977,0.013 -1.629,-0.087 -2.388,0.032 -0.217,0.003 -0.432,0.115 -0.648,0.227 l -29.022,244.522 -168.197,-3.899 -19.962,-270.56 c -0.327,-0.104 -0.653,-0.1 -0.979,-0.204 0.124,1.193 -1.3,0.235 -2.052,0.788 0.764,0.315 1.309,0.524 1.965,0.841 -0.107,0.111 -0.106,0.219 -0.211,0.437 -1.093,-0.528 -2.183,-0.838 -3.274,-1.258 -0.757,0.228 -1.516,0.238 -2.276,0.249 -0.327,-0.105 -0.874,-0.423 -0.981,-0.313 -0.316,0.764 -0.54,0.225 -1.086,0.015 -1.42,-0.74 -3.166,-1.368 -4.802,-1.997 0,0 -0.108,0.11 -0.216,0.111 -0.65,0.118 -1.189,0.342 -1.841,0.351 -1.303,0.018 -2.711,0.146 -4.122,0.165 -1.303,0.018 -2.819,0.255 -4.019,-0.163 -2.618,-0.941 -4.906,-1.562 -7.269,0.316 -0.645,0.443 -1.84,0.351 -2.816,0.473 -0.109,-0.108 -0.111,-0.216 -0.221,-0.323 -0.321,0.33 -0.748,0.878 -0.961,1.207 -1.525,-0.414 -2.947,-1.262 -4.465,-1.134 1.657,2.149 3.21,4.625 4.545,6.995 14.566,25.419 21.153,62.779 20.088,112.184 -1.174,49.298 -10.436,86.656 -28.004,111.861 -17.568,25.206 -46.276,37.428 -85.908,36.556 l -131.169,-2.992 6.022,-267.548 c -0.216,0.111 -0.538,0.333 -0.864,0.337 -0.874,-0.422 -1.861,-1.169 -2.508,-0.834 -1.185,0.667 -2.145,1.874 -3.324,2.976 -0.545,-0.101 -1.307,-0.308 -2.172,-0.079 -2.054,0.679 -4.116,0.707 -5.978,-0.57 -0.767,-0.532 -1.313,-0.742 -2.17,0.138 -0.535,0.55 -2.053,0.679 -2.6,0.361 -1.427,-1.175 -3.051,-0.827 -4.677,-0.696 -1.521,-0.088 -3.037,0.15 -4.354,-0.918 -0.549,-0.427 -1.961,-0.516 -2.389,-0.076 -1.178,1.21 -2.49,0.577 -3.68,0.81 -1.517,0.237 -2.925,0.474 -4.439,0.82 -0.651,0.117 -1.297,0.452 -1.841,0.351 -0.868,0.011 -1.74,-0.194 -2.609,-0.29 L -869.347,241.407 -6,261.143 Z"
             style="fill:#f8f8f4;fill-opacity:1;fill-rule:nonzero;stroke:none"
             id="path32" />
        </g>
        <g
           id="g34"
           transform="translate(261.746,566.723)">
          <path
             d="m 0,0 c -1.633,-8.336 -4.976,-14.696 -10.575,-19.287 -5.381,-4.594 -14.206,-6.971 -26.042,-7.244 l -5.863,-0.137 -2.816,120.203 11.076,0.283 c 13.791,0.355 23.283,-4.116 28.043,-13.19 C -1.308,71.443 1.31,56.427 1.788,35.688 2.119,20.161 1.525,8.337 0,0"
             style="fill:#f8f8f4;fill-opacity:1;fill-rule:nonzero;stroke:none"
             id="path36" />
        </g>
        <g
           id="g38"
           transform="translate(501.6193,509.2942)">
          <path
             d="m 0,0 c -0.982,-0.313 -1.748,-0.845 -2.624,-1.376 -0.767,-0.532 -1.961,-0.516 -3.373,-0.605 -0.445,-0.754 -3.166,-1.26 -4.242,-0.593 -0.113,-0.325 -0.123,-1.085 -0.34,-1.082 -1.304,-0.091 -1.772,-2.581 -3.599,-1.253 -0.109,10e-4 -0.544,-0.102 -0.546,-0.21 -0.453,-1.405 -1.751,-1.062 -2.838,-1.156 -0.436,-0.102 -1.088,-0.202 -1.093,-0.527 -1,-1.724 -2.513,-1.269 -4.034,-1.357 -2.061,0.137 -4.23,0.275 -6.086,-0.459 -0.87,-0.206 -1.63,-0.196 -2.391,-0.294 l 8.631,171.717 4.669,0.045 z"
             style="fill:#f8f8f4;fill-opacity:1;fill-rule:nonzero;stroke:none"
             id="path40" />
        </g>
        <g
           id="g42"
           transform="translate(781.8026,518.5087)">
          <path
             d="m 0,0 c -0.431,0.223 -1.188,0.451 -1.837,0.568 -0.55,-0.536 -1.099,-0.962 -1.648,-1.388 -0.107,0.109 -0.214,0.219 -0.212,0.328 0.112,0.324 0.227,0.757 0.234,1.299 -0.329,-0.321 -0.66,-0.642 -0.878,-0.748 -1.29,0.886 -1.631,-0.194 -2.289,-0.729 -1.209,-1.069 -2.415,-1.921 -4.026,-0.704 -0.108,0.109 -0.323,0.221 -0.433,0.114 -1.309,-0.417 -2.51,-0.943 -3.709,-1.361 -0.219,-0.105 -0.437,-0.211 -0.544,-0.101 -1.077,0.666 -1.306,-0.199 -1.746,-0.627 -0.55,-0.536 -1.205,-0.852 -1.861,-1.169 -0.219,-0.105 -0.871,-0.205 -0.983,-0.421 -0.568,-1.837 -2.622,-1.267 -3.828,-2.119 -0.657,-0.425 -1.952,0.135 -2.926,0.366 -0.325,0.004 -0.647,0.334 -0.972,0.338 -0.977,0.013 -1.962,-0.624 -3.043,-0.284 l 8.453,166.617 4.668,0.046 z"
             style="fill:#f8f8f4;fill-opacity:1;fill-rule:nonzero;stroke:none"
             id="path44" />
        </g>
      </g>
    </g>
  </g>
</svg>
